<svg width="385" height="234" viewBox="0 0 385 234" fill="none" xmlns="http://www.w3.org/2000/svg">
<g clip-path="url(#clip0_1_6)">
<path d="M362.932 225.689H25.9314C21.4122 225.689 17.7538 222.285 17.7538 218.08V7.60976C17.7538 3.40436 21.4122 0 25.9314 0H362.932C367.451 0 371.109 3.40436 371.109 7.60976V217.979C371.217 222.285 367.451 225.689 362.932 225.689Z" fill="#00D5E4"/>
<path d="M350.988 218.08H37.8749C33.3557 218.08 29.6973 214.675 29.6973 210.47V15.3196C29.6973 11.1142 33.3557 7.70988 37.8749 7.70988H350.988C355.507 7.70988 359.166 11.1142 359.166 15.3196V210.47C359.273 214.575 355.507 218.08 350.988 218.08Z" fill="#065090"/>
<path d="M124.385 28.9371H81.1297V33.4429H124.385V28.9371Z" fill="#FCFDFD"/>
<path d="M108.675 38.9499H81.1297V43.4557H108.675V38.9499Z" fill="#FCFDFD"/>
<path d="M235.104 38.9499H124.169V43.4557H235.104V38.9499Z" fill="#FCFDFD"/>
<path d="M303.967 38.9499H245.864V43.4557H303.967V38.9499Z" fill="#FF6452"/>
<path d="M161.937 48.9628H91.8896V53.4686H161.937V48.9628Z" fill="#00D050"/>
<path d="M287.828 48.9628H183.456V53.4686H287.828V48.9628Z" fill="#FCFDFD"/>
<path d="M179.69 58.9756H81.1297V63.4814H179.69V58.9756Z" fill="#FF6452"/>
<path d="M258.776 58.9756H188.729V63.4814H258.776V58.9756Z" fill="#00D5E4"/>
<path d="M161.937 68.9884H91.8896V73.4942H161.937V68.9884Z" fill="#FCFDFD"/>
<path d="M183.456 79.0013H81.1297V83.5071H183.456V79.0013Z" fill="#FCFDFD"/>
<path d="M151.177 89.0141H81.1297V93.5199H151.177V89.0141Z" fill="#FCFDFD"/>
<path d="M219.502 99.027H102.65V103.533H219.502V99.027Z" fill="#FF6452"/>
<path d="M269.536 99.027H231.768V103.533H269.536V99.027Z" fill="#FCFDFD"/>
<path d="M323.335 99.027H285.568V103.533H323.335V99.027Z" fill="#FCFDFD"/>
<path d="M161.076 109.04H113.409V113.546H161.076V109.04Z" fill="#FCFDFD"/>
<path d="M177 119.053H113.409V123.558H177V119.053Z" fill="#FF6452"/>
<path d="M269.536 119.053H199.489V123.558H269.536V119.053Z" fill="#FCFDFD"/>
<path d="M314.727 119.053H285.568V123.558H314.727V119.053Z" fill="#FF6452"/>
<path d="M124.169 129.065H81.1297V133.571H124.169V129.065Z" fill="#FCFDFD"/>
<path d="M151.177 139.078H81.1297V143.584H151.177V139.078Z" fill="#FCFDFD"/>
<path d="M240.484 149.091H113.409V153.597H240.484V149.091Z" fill="#FCFDFD"/>
<path d="M331.943 149.091H253.288V153.597H331.943V149.091Z" fill="#00D5E4"/>
<path d="M156.557 159.104H113.409V163.61H156.557V159.104Z" fill="#FCFDFD"/>
<path d="M210.356 159.104H167.209V163.61H210.356V159.104Z" fill="#00D050"/>
<path d="M264.156 159.104H221.008V163.61H264.156V159.104Z" fill="#FCFDFD"/>
<path d="M151.177 169.117H81.1297V173.623H151.177V169.117Z" fill="#FCFDFD"/>
<path d="M172.696 179.13H102.65V183.635H172.696V179.13Z" fill="#00D050"/>
<path d="M256.086 179.13H186.039V183.635H256.086V179.13Z" fill="#00D050"/>
<path d="M223.806 199.155H184.532V203.661H223.806V199.155Z" fill="#FCFDFD"/>
<path d="M206.59 189.143H102.65V193.648H206.59V189.143Z" fill="#FCFDFD"/>
<path d="M54.1223 28.9371H49.2804V33.4429H54.1223V28.9371Z" fill="#5E94C1"/>
<path d="M54.1223 38.9499H49.2804V43.4557H54.1223V38.9499Z" fill="#5E94C1"/>
<path d="M54.1223 48.9628H49.2804V53.4686H54.1223V48.9628Z" fill="#5E94C1"/>
<path d="M54.1223 58.9756H49.2804V63.4814H54.1223V58.9756Z" fill="#5E94C1"/>
<path d="M54.1223 68.9884H49.2804V73.4942H54.1223V68.9884Z" fill="#5E94C1"/>
<path d="M54.1223 79.0013H49.2804V83.5071H54.1223V79.0013Z" fill="#5E94C1"/>
<path d="M54.1223 89.0141H49.2804V93.5199H54.1223V89.0141Z" fill="#5E94C1"/>
<path d="M54.1223 99.027H49.2804V103.533H54.1223V99.027Z" fill="#5E94C1"/>
<path d="M54.1223 109.04H49.2804V113.546H54.1223V109.04Z" fill="#5E94C1"/>
<path d="M54.1223 119.053H49.2804V123.558H54.1223V119.053Z" fill="#5E94C1"/>
<path d="M54.1223 129.065H49.2804V133.571H54.1223V129.065Z" fill="#5E94C1"/>
<path d="M54.1223 139.078H49.2804V143.584H54.1223V139.078Z" fill="#5E94C1"/>
<path d="M54.1223 149.091H49.2804V153.597H54.1223V149.091Z" fill="#5E94C1"/>
<path d="M54.1223 159.104H49.2804V163.61H54.1223V159.104Z" fill="#5E94C1"/>
<path d="M54.1223 169.117H49.2804V173.623H54.1223V169.117Z" fill="#5E94C1"/>
<path d="M54.1223 179.13H49.2804V183.635H54.1223V179.13Z" fill="#5E94C1"/>
<path d="M54.1223 189.143H49.2804V193.648H54.1223V189.143Z" fill="#5E94C1"/>
<path d="M54.1223 199.155H49.2804V203.661H54.1223V199.155Z" fill="#5E94C1"/>
<path d="M154.62 199.155H102.65V203.661H154.62V199.155Z" fill="#FCFDFD"/>
<path d="M306.335 203.561L285.891 195.451V192.146L306.335 184.036V187.54L290.087 193.748L306.335 199.956V203.561Z" fill="#FCFDFD"/>
<path d="M320.753 179.23L311.822 207.967H308.809L317.74 179.23H320.753Z" fill="#FCFDFD"/>
<path d="M343.564 195.451L323.12 203.561V200.056L339.367 193.849L323.12 187.641V184.136L343.564 192.246V195.451Z" fill="#FCFDFD"/>
<path d="M362.609 234H21.5198C9.68392 234 0 224.988 0 213.974H384.129C384.129 225.089 374.445 234 362.609 234Z" fill="#00BBD3"/>
<g opacity="0.1">
<g opacity="0.1">
<path opacity="0.1" d="M139.233 218.08L219.502 7.60976H189.052L108.783 218.08H139.233Z" fill="white"/>
</g>
<g opacity="0.1">
<path opacity="0.1" d="M37.9825 218.08H52.2931L132.562 7.60976H37.9825C33.4633 7.60976 29.8049 11.0141 29.8049 15.2195V210.37C29.6973 214.575 33.4633 218.08 37.9825 218.08Z" fill="white"/>
</g>
<g opacity="0.1">
<path opacity="0.1" d="M309.455 218.08H351.096C355.615 218.08 359.273 214.675 359.273 210.47V87.5122L309.455 218.08Z" fill="white"/>
</g>
</g>
<g opacity="0.1">
<g opacity="0.1">
<path opacity="0.1" d="M198.305 218.08H254.149L334.418 7.60976H278.574L198.305 218.08Z" fill="white"/>
</g>
</g>
<path d="M381.223 223.987C383.053 221.083 384.129 217.579 384.129 213.974H0C0 217.579 1.07599 221.083 2.90517 223.987H381.223Z" fill="#15D7E2"/>
</g>
<defs>
<clipPath id="clip0_1_6">
<rect width="384.129" height="234" fill="white"/>
</clipPath>
</defs>
</svg>
